<svg width="343" height="40" viewBox="0 0 343 40" fill="none" xmlns="http://www.w3.org/2000/svg">
<path d="M43.82 30V16.112H46.984L47.264 18.464C47.6933 17.6427 48.3093 16.9893 49.112 16.504C49.9333 16.0187 50.8947 15.776 51.996 15.776C53.7133 15.776 55.048 16.3173 56 17.4C56.952 18.4827 57.428 20.0693 57.428 22.16V30H53.844V22.496C53.844 21.3013 53.6013 20.3867 53.116 19.752C52.6307 19.1173 51.8747 18.8 50.848 18.8C49.84 18.8 49.0093 19.1547 48.356 19.864C47.7213 20.5733 47.404 21.5627 47.404 22.832V30H43.82ZM66.0632 30.336C64.3272 30.336 62.9832 29.7947 62.0312 28.712C61.0978 27.6293 60.6312 26.0427 60.6312 23.952V16.112H64.1872V23.616C64.1872 24.8107 64.4298 25.7253 64.9152 26.36C65.4005 26.9947 66.1658 27.312 67.2112 27.312C68.2005 27.312 69.0125 26.9573 69.6472 26.248C70.3005 25.5387 70.6272 24.5493 70.6272 23.28V16.112H74.2112V30H71.0472L70.7672 27.648C70.3378 28.4693 69.7125 29.1227 68.8912 29.608C68.0885 30.0933 67.1458 30.336 66.0632 30.336ZM76.5743 30L81.6143 23.056L76.5743 16.112H80.4103L83.9383 21.04L87.4383 16.112H91.3023L86.2343 23.056L91.3023 30H87.4383L83.9383 25.072L80.4103 30H76.5743ZM99.7736 30C98.3176 30 97.151 29.6453 96.2736 28.936C95.3963 28.2267 94.9576 26.9667 94.9576 25.156V19.108H92.5776V16.112H94.9576L95.3776 12.388H98.5416V16.112H102.294V19.108H98.5416V25.184C98.5416 25.856 98.6816 26.3227 98.9616 26.584C99.2603 26.8267 99.7643 26.948 100.474 26.948H102.21V30H99.7736ZM104.195 33.108L111.195 8.244H114.695L107.667 33.108H104.195Z" fill="#003C3C"/>
<path d="M123.036 25.856C122.364 25.856 121.739 25.7813 121.16 25.632L120.124 26.668C120.441 26.836 120.871 26.976 121.412 27.088C121.953 27.2 122.831 27.312 124.044 27.424C125.892 27.592 127.236 28.0307 128.076 28.74C128.916 29.4493 129.336 30.4293 129.336 31.68C129.336 32.5013 129.112 33.276 128.664 34.004C128.216 34.7507 127.525 35.348 126.592 35.796C125.659 36.2627 124.464 36.496 123.008 36.496C121.029 36.496 119.433 36.1227 118.22 35.376C117.007 34.648 116.4 33.5467 116.4 32.072C116.4 30.8213 117.007 29.7387 118.22 28.824C117.847 28.656 117.52 28.4787 117.24 28.292C116.979 28.1053 116.745 27.9093 116.54 27.704V27.06L118.976 24.484C117.893 23.532 117.352 22.3093 117.352 20.816C117.352 19.8827 117.576 19.0333 118.024 18.268C118.491 17.5027 119.144 16.896 119.984 16.448C120.824 16 121.841 15.776 123.036 15.776C123.82 15.776 124.548 15.888 125.22 16.112H130.484V18.296L128.104 18.464C128.477 19.1733 128.664 19.9573 128.664 20.816C128.664 21.7493 128.44 22.5987 127.992 23.364C127.544 24.1293 126.891 24.736 126.032 25.184C125.192 25.632 124.193 25.856 123.036 25.856ZM123.036 23.112C123.764 23.112 124.361 22.916 124.828 22.524C125.313 22.132 125.556 21.572 125.556 20.844C125.556 20.116 125.313 19.556 124.828 19.164C124.361 18.772 123.764 18.576 123.036 18.576C122.271 18.576 121.655 18.772 121.188 19.164C120.721 19.556 120.488 20.116 120.488 20.844C120.488 21.572 120.721 22.132 121.188 22.524C121.655 22.916 122.271 23.112 123.036 23.112ZM119.676 31.708C119.676 32.3987 119.993 32.912 120.628 33.248C121.281 33.6027 122.075 33.78 123.008 33.78C123.904 33.78 124.632 33.5933 125.192 33.22C125.752 32.8653 126.032 32.38 126.032 31.764C126.032 31.26 125.845 30.84 125.472 30.504C125.117 30.168 124.399 29.9627 123.316 29.888C122.551 29.832 121.841 29.748 121.188 29.636C120.647 29.9347 120.255 30.2613 120.012 30.616C119.788 30.9707 119.676 31.3347 119.676 31.708ZM139.214 30.336C137.87 30.336 136.657 30.028 135.574 29.412C134.51 28.796 133.661 27.9467 133.026 26.864C132.41 25.7627 132.102 24.4933 132.102 23.056C132.102 21.6187 132.42 20.3587 133.054 19.276C133.689 18.1747 134.538 17.316 135.602 16.7C136.685 16.084 137.898 15.776 139.242 15.776C140.568 15.776 141.762 16.084 142.826 16.7C143.909 17.316 144.758 18.1747 145.374 19.276C146.009 20.3587 146.326 21.6187 146.326 23.056C146.326 24.4933 146.009 25.7627 145.374 26.864C144.758 27.9467 143.909 28.796 142.826 29.412C141.744 30.028 140.54 30.336 139.214 30.336ZM139.214 27.228C140.148 27.228 140.96 26.8827 141.65 26.192C142.341 25.4827 142.686 24.4373 142.686 23.056C142.686 21.6747 142.341 20.6387 141.65 19.948C140.96 19.2387 140.157 18.884 139.242 18.884C138.29 18.884 137.469 19.2387 136.778 19.948C136.106 20.6387 135.77 21.6747 135.77 23.056C135.77 24.4373 136.106 25.4827 136.778 26.192C137.469 26.8827 138.281 27.228 139.214 27.228ZM156.195 30.336C154.851 30.336 153.638 30.028 152.555 29.412C151.491 28.796 150.642 27.9467 150.007 26.864C149.391 25.7627 149.083 24.4933 149.083 23.056C149.083 21.6187 149.4 20.3587 150.035 19.276C150.67 18.1747 151.519 17.316 152.583 16.7C153.666 16.084 154.879 15.776 156.223 15.776C157.548 15.776 158.743 16.084 159.807 16.7C160.89 17.316 161.739 18.1747 162.355 19.276C162.99 20.3587 163.307 21.6187 163.307 23.056C163.307 24.4933 162.99 25.7627 162.355 26.864C161.739 27.9467 160.89 28.796 159.807 29.412C158.724 30.028 157.52 30.336 156.195 30.336ZM156.195 27.228C157.128 27.228 157.94 26.8827 158.631 26.192C159.322 25.4827 159.667 24.4373 159.667 23.056C159.667 21.6747 159.322 20.6387 158.631 19.948C157.94 19.2387 157.138 18.884 156.223 18.884C155.271 18.884 154.45 19.2387 153.759 19.948C153.087 20.6387 152.751 21.6747 152.751 23.056C152.751 24.4373 153.087 25.4827 153.759 26.192C154.45 26.8827 155.262 27.228 156.195 27.228ZM171.516 25.856C170.844 25.856 170.219 25.7813 169.64 25.632L168.604 26.668C168.922 26.836 169.351 26.976 169.892 27.088C170.434 27.2 171.311 27.312 172.524 27.424C174.372 27.592 175.716 28.0307 176.556 28.74C177.396 29.4493 177.816 30.4293 177.816 31.68C177.816 32.5013 177.592 33.276 177.144 34.004C176.696 34.7507 176.006 35.348 175.072 35.796C174.139 36.2627 172.944 36.496 171.488 36.496C169.51 36.496 167.914 36.1227 166.7 35.376C165.487 34.648 164.88 33.5467 164.88 32.072C164.88 30.8213 165.487 29.7387 166.7 28.824C166.327 28.656 166 28.4787 165.72 28.292C165.459 28.1053 165.226 27.9093 165.02 27.704V27.06L167.456 24.484C166.374 23.532 165.832 22.3093 165.832 20.816C165.832 19.8827 166.056 19.0333 166.504 18.268C166.971 17.5027 167.624 16.896 168.464 16.448C169.304 16 170.322 15.776 171.516 15.776C172.3 15.776 173.028 15.888 173.7 16.112H178.964V18.296L176.584 18.464C176.958 19.1733 177.144 19.9573 177.144 20.816C177.144 21.7493 176.92 22.5987 176.472 23.364C176.024 24.1293 175.371 24.736 174.512 25.184C173.672 25.632 172.674 25.856 171.516 25.856ZM171.516 23.112C172.244 23.112 172.842 22.916 173.308 22.524C173.794 22.132 174.036 21.572 174.036 20.844C174.036 20.116 173.794 19.556 173.308 19.164C172.842 18.772 172.244 18.576 171.516 18.576C170.751 18.576 170.135 18.772 169.668 19.164C169.202 19.556 168.968 20.116 168.968 20.844C168.968 21.572 169.202 22.132 169.668 22.524C170.135 22.916 170.751 23.112 171.516 23.112ZM168.156 31.708C168.156 32.3987 168.474 32.912 169.108 33.248C169.762 33.6027 170.555 33.78 171.488 33.78C172.384 33.78 173.112 33.5933 173.672 33.22C174.232 32.8653 174.512 32.38 174.512 31.764C174.512 31.26 174.326 30.84 173.952 30.504C173.598 30.168 172.879 29.9627 171.796 29.888C171.031 29.832 170.322 29.748 169.668 29.636C169.127 29.9347 168.735 30.2613 168.492 30.616C168.268 30.9707 168.156 31.3347 168.156 31.708ZM181.578 30V9.84H185.162V30H181.578ZM195.572 30.336C194.172 30.336 192.931 30.0373 191.848 29.44C190.765 28.8427 189.916 28.0027 189.3 26.92C188.684 25.8373 188.376 24.5867 188.376 23.168C188.376 21.7307 188.675 20.452 189.272 19.332C189.888 18.212 190.728 17.344 191.792 16.728C192.875 16.0933 194.144 15.776 195.6 15.776C196.963 15.776 198.167 16.0747 199.212 16.672C200.257 17.2693 201.069 18.0907 201.648 19.136C202.245 20.1627 202.544 21.3107 202.544 22.58C202.544 22.7853 202.535 23 202.516 23.224C202.516 23.448 202.507 23.6813 202.488 23.924H191.932C192.007 25.0067 192.38 25.856 193.052 26.472C193.743 27.088 194.573 27.396 195.544 27.396C196.272 27.396 196.879 27.2373 197.364 26.92C197.868 26.584 198.241 26.1547 198.484 25.632H202.124C201.863 26.5093 201.424 27.312 200.808 28.04C200.211 28.7493 199.464 29.3093 198.568 29.72C197.691 30.1307 196.692 30.336 195.572 30.336ZM195.6 18.688C194.723 18.688 193.948 18.94 193.276 19.444C192.604 19.9293 192.175 20.676 191.988 21.684H198.904C198.848 20.7693 198.512 20.0413 197.896 19.5C197.28 18.9587 196.515 18.688 195.6 18.688ZM205.25 23.392V20.396H216.982V23.392H205.25ZM225.112 30.336C223.917 30.336 222.937 30.1493 222.172 29.776C221.407 29.384 220.837 28.8707 220.464 28.236C220.091 27.6013 219.904 26.9013 219.904 26.136C219.904 24.848 220.408 23.8027 221.416 23C222.424 22.1973 223.936 21.796 225.952 21.796H229.48V21.46C229.48 20.508 229.209 19.808 228.668 19.36C228.127 18.912 227.455 18.688 226.652 18.688C225.924 18.688 225.289 18.8653 224.748 19.22C224.207 19.556 223.871 20.06 223.74 20.732H220.24C220.333 19.724 220.669 18.8467 221.248 18.1C221.845 17.3533 222.611 16.784 223.544 16.392C224.477 15.9813 225.523 15.776 226.68 15.776C228.659 15.776 230.217 16.2707 231.356 17.26C232.495 18.2493 233.064 19.6493 233.064 21.46V30H230.012L229.676 27.76C229.265 28.5067 228.687 29.1227 227.94 29.608C227.212 30.0933 226.269 30.336 225.112 30.336ZM225.924 27.536C226.951 27.536 227.744 27.2 228.304 26.528C228.883 25.856 229.247 25.0253 229.396 24.036H226.344C225.392 24.036 224.711 24.2133 224.3 24.568C223.889 24.904 223.684 25.324 223.684 25.828C223.684 26.3693 223.889 26.7893 224.3 27.088C224.711 27.3867 225.252 27.536 225.924 27.536ZM236.484 30V16.112H239.648L239.928 18.464C240.357 17.6427 240.973 16.9893 241.776 16.504C242.597 16.0187 243.559 15.776 244.66 15.776C246.377 15.776 247.712 16.3173 248.664 17.4C249.616 18.4827 250.092 20.0693 250.092 22.16V30H246.508V22.496C246.508 21.3013 246.265 20.3867 245.78 19.752C245.295 19.1173 244.539 18.8 243.512 18.8C242.504 18.8 241.673 19.1547 241.02 19.864C240.385 20.5733 240.068 21.5627 240.068 22.832V30H236.484ZM258.307 30.336C257.113 30.336 256.133 30.1493 255.367 29.776C254.602 29.384 254.033 28.8707 253.659 28.236C253.286 27.6013 253.099 26.9013 253.099 26.136C253.099 24.848 253.603 23.8027 254.611 23C255.619 22.1973 257.131 21.796 259.147 21.796H262.675V21.46C262.675 20.508 262.405 19.808 261.863 19.36C261.322 18.912 260.65 18.688 259.847 18.688C259.119 18.688 258.485 18.8653 257.943 19.22C257.402 19.556 257.066 20.06 256.935 20.732H253.435C253.529 19.724 253.865 18.8467 254.443 18.1C255.041 17.3533 255.806 16.784 256.739 16.392C257.673 15.9813 258.718 15.776 259.875 15.776C261.854 15.776 263.413 16.2707 264.551 17.26C265.69 18.2493 266.259 19.6493 266.259 21.46V30H263.207L262.871 27.76C262.461 28.5067 261.882 29.1227 261.135 29.608C260.407 30.0933 259.465 30.336 258.307 30.336ZM259.119 27.536C260.146 27.536 260.939 27.2 261.499 26.528C262.078 25.856 262.442 25.0253 262.591 24.036H259.539C258.587 24.036 257.906 24.2133 257.495 24.568C257.085 24.904 256.879 25.324 256.879 25.828C256.879 26.3693 257.085 26.7893 257.495 27.088C257.906 27.3867 258.447 27.536 259.119 27.536ZM269.679 30V9.84H273.263V30H269.679ZM278.661 36.16L281.881 29.076H281.041L275.637 16.112H279.529L283.421 25.884L287.481 16.112H291.289L282.469 36.16H278.661ZM299.821 30C298.365 30 297.198 29.6453 296.321 28.936C295.443 28.2267 295.005 26.9667 295.005 25.156V19.108H292.625V16.112H295.005L295.425 12.388H298.589V16.112H302.341V19.108H298.589V25.184C298.589 25.856 298.729 26.3227 299.008 26.584C299.307 26.8267 299.811 26.948 300.521 26.948H302.257V30H299.821ZM307.35 13.956C306.696 13.956 306.155 13.76 305.726 13.368C305.315 12.976 305.11 12.4813 305.11 11.884C305.11 11.2867 305.315 10.8013 305.726 10.428C306.155 10.036 306.696 9.84 307.35 9.84C308.003 9.84 308.535 10.036 308.946 10.428C309.375 10.8013 309.59 11.2867 309.59 11.884C309.59 12.4813 309.375 12.976 308.946 13.368C308.535 13.76 308.003 13.956 307.35 13.956ZM305.558 30V16.112H309.142V30H305.558ZM319.687 30.336C318.268 30.336 317.017 30.028 315.935 29.412C314.852 28.796 313.993 27.9373 313.359 26.836C312.743 25.7347 312.435 24.4747 312.435 23.056C312.435 21.6373 312.743 20.3773 313.359 19.276C313.993 18.1747 314.852 17.316 315.935 16.7C317.017 16.084 318.268 15.776 319.687 15.776C321.46 15.776 322.953 16.2427 324.167 17.176C325.38 18.0907 326.155 19.36 326.49 20.984H322.711C322.524 20.312 322.151 19.7893 321.591 19.416C321.049 19.024 320.405 18.828 319.659 18.828C318.669 18.828 317.829 19.2013 317.139 19.948C316.448 20.6947 316.103 21.7307 316.103 23.056C316.103 24.3813 316.448 25.4173 317.139 26.164C317.829 26.9107 318.669 27.284 319.659 27.284C320.405 27.284 321.049 27.0973 321.591 26.724C322.151 26.3507 322.524 25.8187 322.711 25.128H326.49C326.155 26.696 325.38 27.956 324.167 28.908C322.953 29.86 321.46 30.336 319.687 30.336ZM335.412 30.336C334.18 30.336 333.097 30.14 332.164 29.748C331.23 29.3373 330.484 28.7773 329.924 28.068C329.364 27.3587 329.028 26.5373 328.916 25.604H332.528C332.64 26.1453 332.938 26.612 333.424 27.004C333.928 27.3773 334.572 27.564 335.356 27.564C336.14 27.564 336.709 27.4053 337.064 27.088C337.437 26.7707 337.624 26.4067 337.624 25.996C337.624 25.3987 337.362 24.9973 336.84 24.792C336.317 24.568 335.589 24.3533 334.656 24.148C334.058 24.0173 333.452 23.8587 332.836 23.672C332.22 23.4853 331.65 23.252 331.128 22.972C330.624 22.6733 330.213 22.3 329.896 21.852C329.578 21.3853 329.42 20.816 329.42 20.144C329.42 18.912 329.905 17.876 330.876 17.036C331.865 16.196 333.246 15.776 335.02 15.776C336.662 15.776 337.969 16.1587 338.94 16.924C339.929 17.6893 340.517 18.744 340.704 20.088H337.316C337.11 19.0613 336.336 18.548 334.992 18.548C334.32 18.548 333.797 18.6787 333.424 18.94C333.069 19.2013 332.892 19.528 332.892 19.92C332.892 20.3307 333.162 20.6573 333.704 20.9C334.245 21.1427 334.964 21.3667 335.86 21.572C336.83 21.796 337.717 22.048 338.52 22.328C339.341 22.5893 339.994 22.9907 340.48 23.532C340.965 24.0547 341.208 24.8107 341.208 25.8C341.226 26.6587 341.002 27.4333 340.536 28.124C340.069 28.8147 339.397 29.356 338.52 29.748C337.642 30.14 336.606 30.336 335.412 30.336Z" fill="#E37400"/>
<path d="M21.6665 8.8335V30.8335C21.6665 33.2952 23.3648 34.6668 25.1665 34.6668C26.8332 34.6668 28.6665 33.5002 28.6665 30.8335V9.00016C28.6665 6.7435 26.9998 5.3335 25.1665 5.3335C23.3332 5.3335 21.6665 6.8885 21.6665 8.8335Z" fill="#F9AB00"/>
<path d="M12.4995 20.0002V30.8336C12.4995 33.2952 14.1978 34.6669 15.9995 34.6669C17.6662 34.6669 19.4995 33.5002 19.4995 30.8336V20.1669C19.4995 17.9102 17.8328 16.5002 15.9995 16.5002C14.1662 16.5002 12.4995 18.0552 12.4995 20.0002Z" fill="#E37400"/>
<path d="M6.83301 34.6667C8.766 34.6667 10.333 33.0997 10.333 31.1667C10.333 29.2338 8.766 27.6667 6.83301 27.6667C4.90001 27.6667 3.33301 29.2338 3.33301 31.1667C3.33301 33.0997 4.90001 34.6667 6.83301 34.6667Z" fill="#E37400"/>
</svg>
